Coordinates
version=1
nRows=17
nColumns=40
inDegrees=yes

Units are S.I. units (second, meters, Newtons, ...)
If the header above contains a line with 'inDegrees', this indicates whether rotational values are in degrees (yes) or radians (no).

endheader
time	pelvis_tilt	pelvis_list	pelvis_rotation	pelvis_tx	pelvis_ty	pelvis_tz	hip_flexion_r	hip_adduction_r	hip_rotation_r	knee_angle_r	knee_angle_r_beta	ankle_angle_r	subtalar_angle_r	mtp_angle_r	hip_flexion_l	hip_adduction_l	hip_rotation_l	knee_angle_l	knee_angle_l_beta	ankle_angle_l	subtalar_angle_l	mtp_angle_l	lumbar_extension	lumbar_bending	lumbar_rotation	arm_flex_r	arm_add_r	arm_rot_r	elbow_flex_r	pro_sup_r	wrist_flex_r	wrist_dev_r	arm_flex_l	arm_add_l	arm_rot_l	elbow_flex_l	pro_sup_l	wrist_flex_l	wrist_dev_l
      5.20000000	     -5.25073384	     -1.51835452	      4.73418641	     -0.24174400	      1.17166323	     -0.02586964	     36.28640593	     -8.02173693	     -8.95386281	     65.98428622	      1.15164305	      7.93512566	     -5.06774735	      0.00000000	     77.66647104	     -7.02150890	      3.27769390	     97.42818242	      1.70044257	     13.34783108	     -2.85803916	      0.00000000	    -66.48379816	      3.14774910	      0.27834539	     89.49723819	    -17.14443733	     67.12014544	     31.83642532	     51.27749094	      0.00000000	      0.00000000	     86.74833389	    -11.62701785	     39.21549478	     35.51343366	     56.27787293	      0.00000000	      0.00000000
      5.20833333	     -5.33135328	     -1.74716495	      4.73637650	     -0.24215386	      1.17130143	     -0.02575050	     37.05977417	     -7.87351178	     -8.74008688	     67.86571099	      1.18448011	      8.35966282	     -5.02197347	      0.00000000	     76.98472225	     -6.90842613	      3.45504914	     95.77104026	      1.67151998	     13.45532769	     -3.00393533	      0.00000000	    -66.38894429	      3.28195550	      0.50976554	     89.49754720	    -17.17442144	     66.78212666	     31.81988866	     51.94395425	      0.00000000	      0.00000000	     86.70736649	    -11.52870322	     38.71591432	     35.30753471	     58.16876131	      0.00000000	      0.00000000
      5.21666667	     -5.17384769	     -1.72165913	      4.72892461	     -0.24230740	      1.17110661	     -0.02585332	     37.77880172	     -7.91732718	     -8.26580022	     70.01595083	      1.22200887	      8.75664929	     -5.28997579	      0.00000000	     75.95469884	     -6.86746760	      3.25817187	     93.97141516	      1.64011060	     13.19507494	     -3.22046042	      0.00000000	    -66.53053440	      3.31283757	      0.55380545	     89.49296977	    -17.30338196	     66.57285666	     32.11263139	     52.05861868	      0.00000000	      0.00000000	     86.76908161	    -11.51612892	     39.01222087	     35.24665139	     57.58953504	      0.00000000	      0.00000000
      5.22500000	     -4.95331834	     -1.91144159	      4.68132779	     -0.24224008	      1.17120934	     -0.02560776	     38.26745221	     -7.74237530	     -8.00695523	     71.92390297	      1.25530892	      9.28780655	     -5.40535262	      0.00000000	     74.84776122	     -7.25466529	      3.09992822	     92.16813588	      1.60863744	     13.06621701	     -2.53455802	      0.00000000	    -66.72152860	      3.40173162	      0.75365039	     89.52849300	    -17.22672149	     66.63521331	     31.98949753	     52.10444696	      0.00000000	      0.00000000	     86.66517261	    -11.51573874	     38.65717619	     35.35578881	     57.56694066	      0.00000000	      0.00000000
      5.23333333	     -5.06514159	     -2.11879948	      4.73363746	     -0.24265213	      1.17086001	     -0.02531725	     39.18688329	     -7.66049918	     -7.83950691	     73.89771922	      1.28975851	      9.75287695	     -5.44867643	      0.00000000	     74.12705465	     -7.12754947	      3.27609551	     90.25456706	      1.57523936	     12.51938206	     -2.67723249	      0.00000000	    -66.59801406	      3.55176137	      0.93875529	     89.52689778	    -17.26193265	     66.47900025	     31.98110802	     52.68225193	      0.00000000	      0.00000000	     86.65911610	    -11.48886279	     38.60094431	     35.35580383	     57.38166987	      0.00000000	      0.00000000
      5.24166667	     -4.87723209	     -2.34505003	      4.65073452	     -0.24273737	      1.17089316	     -0.02492792	     39.81780991	     -7.42758423	     -7.59605555	     75.84014387	      1.32366022	     10.13372173	     -5.76666544	      0.00000000	     72.95750004	     -7.44958453	      3.20593134	     88.42120534	      1.54324116	     12.26593423	     -2.38597510	      0.00000000	    -66.77501851	      3.62598376	      1.18623518	     89.55226730	    -17.22052270	     66.35743431	     32.06124462	     52.54332574	      0.00000000	      0.00000000	     86.66685158	    -11.55797962	     38.74443475	     35.47351669	     56.75343671	      0.00000000	      0.00000000
      5.25000000	     -4.85345504	     -2.48284673	      4.64206440	     -0.24288952	      1.17081717	     -0.02482601	     40.66110492	     -7.42521555	     -7.39816453	     77.83436032	      1.35846586	     10.58033353	     -5.57391725	      0.00000000	     71.94589355	     -7.47266757	      3.11425983	     86.56104844	      1.51077530	     11.70551425	     -2.66525830	      0.00000000	    -66.79899099	      3.72809397	      1.34392449	     89.56197722	    -17.25971771	     66.25045166	     32.19676347	     52.61766153	      0.00000000	      0.00000000	     86.59953273	    -11.46475173	     38.12984761	     35.28903910	     58.51490182	      0.00000000	      0.00000000
      5.25833333	     -4.94061180	     -2.54479515	      4.64974788	     -0.24308926	      1.17064246	     -0.02483292	     41.65648634	     -7.53866525	     -7.08063977	     79.85429421	      1.39372036	     11.00307579	     -5.14513994	      0.00000000	     70.87151994	     -7.43389859	      3.06626256	     84.60244143	      1.47659116	     11.32478819	     -2.65396827	      0.00000000	    -66.71861738	      3.80930773	      1.47030613	     89.54910520	    -17.41054726	     66.09294203	     32.52398837	     52.50138795	      0.00000000	      0.00000000	     86.64626284	    -11.37041564	     38.32470098	     35.16796579	     57.78890507	      0.00000000	      0.00000000
      5.26666667	     -4.87489534	     -2.77169278	      4.60761272	     -0.24308252	      1.17060845	     -0.02446780	     42.37630845	     -7.32482426	     -6.89721075	     81.82848348	      1.42817646	     11.74091457	     -5.30704646	      0.00000000	     69.70644225	     -7.59184443	      3.10818639	     82.69265899	      1.44325917	     10.88484450	     -2.70879512	      0.00000000	    -66.77162303	      3.94365239	      1.62828527	     89.58538487	    -17.19779765	     66.15569087	     32.30305129	     52.52297497	      0.00000000	      0.00000000	     86.50496095	    -11.51862024	     38.00329691	     35.43863592	     57.58334493	      0.00000000	      0.00000000
      5.27500000	     -4.87156761	     -2.85873287	      4.55749636	     -0.24309938	      1.17059963	     -0.02454044	     43.33655092	     -7.40291819	     -6.75414797	     83.75145746	      1.46173869	     11.97376027	     -5.38542028	      0.00000000	     68.50539411	     -7.62547896	      2.99151325	     80.72107645	      1.40884856	     10.38098768	     -2.79002526	      0.00000000	    -66.78972197	      4.01218807	      1.77977232	     89.59220206	    -17.27429175	     65.95299938	     32.41280050	     52.97348554	      0.00000000	      0.00000000	     86.44669125	    -11.42263968	     37.59643749	     35.31555392	     58.74702215	      0.00000000	      0.00000000
      5.28333333	     -4.84312271	     -3.01863600	      4.47969735	     -0.24294338	      1.17064284	     -0.02437679	     44.25070565	     -7.37698630	     -6.59538888	     85.65295155	      1.49492602	     12.29696625	     -5.32686786	      0.00000000	     67.26301377	     -7.77030548	      2.92885778	     78.76821855	      1.37476476	      9.89388367	     -3.05074053	      0.00000000	    -66.82037889	      4.07488055	      1.97526473	     89.60014914	    -17.27151763	     65.92640531	     32.45668239	     53.01592345	      0.00000000	      0.00000000	     86.41574116	    -11.44347010	     37.73436526	     35.42264487	     57.78706866	      0.00000000	      0.00000000
      5.29166667	     -4.69789062	     -3.12295206	      4.38001436	     -0.24255711	      1.17088728	     -0.02435407	     45.03267204	     -7.43632884	     -6.40038039	     87.53547113	      1.52778218	     12.69793913	     -4.96894952	      0.00000000	     65.76097889	     -7.81872893	      3.04745806	     76.84344121	      1.34117106	      9.60813321	     -2.71480654	      0.00000000	    -66.97083212	      4.11539492	      2.15024287	     89.61167089	    -17.29434526	     65.88616839	     32.54988427	     53.12567947	      0.00000000	      0.00000000	     86.34160267	    -11.38765848	     37.46202572	     35.37308769	     57.70690187	      0.00000000	      0.00000000
      5.30000000	     -4.82899380	     -3.26877935	      4.29418417	     -0.24259850	      1.17069349	     -0.02413162	     46.19350271	     -7.45326696	     -6.25325588	     89.39176885	      1.56018069	     12.98432205	     -4.89141424	      0.00000000	     64.64825735	     -7.98527922	      2.93699307	     74.84450159	      1.30628298	      8.97568848	     -2.96575636	      0.00000000	    -66.84985264	      4.17660196	      2.32470067	     89.61983436	    -17.29669307	     65.81869423	     32.58859965	     53.40374507	      0.00000000	      0.00000000	     86.30671707	    -11.44873086	     37.55030546	     35.39589918	     57.40410750	      0.00000000	      0.00000000
      5.30833333	     -4.79876755	     -3.45224612	      4.19219628	     -0.24228875	      1.17078651	     -0.02395174	     47.12843867	     -7.44741935	     -6.18744031	     91.14895692	      1.59084941	     13.30475706	     -4.82592819	      0.00000000	     63.32905529	     -8.21509982	      3.04019691	     73.01590813	      1.27436800	      8.47690348	     -2.42091700	      0.00000000	    -66.89014075	      4.25080672	      2.55740557	     89.62970676	    -17.31070779	     65.74889379	     32.65178195	     53.71093483	      0.00000000	      0.00000000	     86.22375304	    -11.43879677	     37.33682927	     35.37732113	     57.40935735	      0.00000000	      0.00000000
      5.31666667	     -4.70285402	     -3.96332728	      4.20620280	     -0.24188036	      1.17069086	     -0.02357683	     48.02656371	     -7.18777154	     -6.41798198	     92.93189520	      1.62196755	     13.56226594	     -4.80018231	      0.00000000	     62.07800688	     -8.48021759	      3.51201009	     71.23443185	      1.24327538	      8.19350390	     -2.40465314	      0.00000000	    -66.96668348	      4.56692818	      3.04458733	     89.63819408	    -17.30555672	     65.71156765	     32.74635127	     53.71257393	      0.00000000	      0.00000000	     86.15634010	    -11.47672390	     37.27501902	     35.37804163	     57.48157538	      0.00000000	      0.00000000
      5.32500000	     -4.79009360	     -4.06752476	      4.08359082	     -0.24163322	      1.17090432	     -0.02357969	     49.08997745	     -7.31929143	     -6.30476535	     94.57854130	      1.65070695	     13.91988841	     -4.61037671	      0.00000000	     60.74041815	     -8.61390151	      3.44689120	     69.15890256	      1.20705056	      7.34383619	     -2.27134358	      0.00000000	    -66.91953241	      4.60620985	      3.22430193	     89.65073596	    -17.37995029	     65.77228605	     32.98556583	     53.73612334	      0.00000000	      0.00000000	     86.08464720	    -11.42383356	     37.05228585	     35.25885583	     57.76395260	      0.00000000	      0.00000000
      5.33333333	     -4.74438975	     -4.50476614	      3.94884173	     -0.24111641	      1.17085820	     -0.02326627	     49.99885520	     -7.15858067	     -6.47987341	     96.20308592	      1.67906060	     14.25116911	     -4.45667957	      0.00000000	     59.47385730	     -9.03595638	      3.67523794	     67.40465700	      1.17643320	      7.00392054	     -2.28185943	      0.00000000	    -66.95537054	      4.77657015	      3.71202170	     89.65617396	    -17.40789033	     65.78300758	     33.04099636	     53.74409246	      0.00000000	      0.00000000	     85.97096033	    -11.45818808	     37.00662504	     35.29636932	     57.85944746	      0.00000000	      0.00000000
